<svg xmlns="http://www.w3.org/2000/svg" viewBox="0 0 117.3 109.09">
  <g>
    <path fill="currentColor" d="M112.96.06H4.79C3.01-.41,0,2.51,0,3.96v18.1h3.21s0-5.04,0-5.04h110.89v67.13c0,2.41-5.3,1.44-6.88,1.6v3.21h6.65c.94,0,3.04-2.71,3.44-3.67V3.74c-.95-1.73-2.13-3.56-4.34-3.68ZM114.1,13.13l-.69.69H3.89l-.69-.69V4.88c0-.27.87-1.27,1.15-1.6h108.6c.1,0,1.15,1.43,1.15,1.6v8.25Z"/>
    <path fill="currentColor" d="M72.85,82.55l-26.34-5.52c-.97-.02-.65-.13-.48.48.72,2.64,1.43,5.51,1.62,8.24H4.35c-.1,0-1.15-1.43-1.15-1.6V25.73H0v59.34c0,1.31,2.74,4.13,4.34,3.91l44.17.05,3.27,15.06,4.81-4.57,9.69,9.58,12.05-11.71c.15-.85-5.7-5.85-6.61-7.04-.35-.46-.88-.58-.68-1.38h25.66v-3.21h-26.12l2.29-3.21ZM73.28,97.38l-7.07,7.16-9.62-9.61c-.47,0-2.08,2.98-2.76,1.83l-3.44-15.35,16.04,3.44-2.26,2.91,9.1,9.62Z"/>
    <path fill="currentColor" d="M73.54,60.55l-2.12-7.27-3.17.14c-.92.64-1.04,6.36-2.72,7.13l-1.42-7.76-3.2.69,2.79,15.31,3.62-.04,2.57-8.66,2.58,8.65h3.08s3.27-15.51,3.27-15.51c-5.61-2.19-3.05,4.23-5.27,7.33Z"/>
    <path fill="currentColor" d="M24.74,69.72h3.21v-10.54c1.92,1.39,4.99,8.99,6.42,9.85.93.56,2.58.11,3.66.23v-16.95h-3.67v10.08c-2.24-1.77-4.39-8.14-6.19-9.62-.99-.81-2.23-.4-3.43-.46v17.41Z"/>
    <path fill="currentColor" d="M67.24,29.97c-11.51,1.99-7.01,21.01,5.02,16.47,9.8-3.7,5.76-18.33-5.02-16.47ZM65.22,42.07c-4.83-5.13,3.56-12.74,8.1-6.95,4.02,5.12-3.51,11.83-8.1,6.95Z"/>
    <path fill="currentColor" d="M34.86,32.8c-.32-.81-2.31-2.94-3.01-2.94h-7.1v17.41h6.64c2.53,0,5.23-3.24,5.19-5.74-.03-1.97-2.01-3.63-2.06-4.11-.12-1.11,1.37-2.05.34-4.63ZM31.17,33.28c.74.68.98,1.58.35,2.42l-3.56.57v-3.21s3.22.23,3.22.23ZM27.95,43.6v-4.13c6.86-1.02,6.99,5.26,0,4.13Z"/>
    <path fill="currentColor" d="M48.45,52.42c-10.12,1.7-8.65,17.5,1.7,17.32,12.02-.21,10.96-19.44-1.7-17.32ZM53.39,65.14c-5.11,4.01-11.81-3.47-6.96-8.1,5.21-4.97,12.74,3.56,6.96,8.1Z"/>
    <path fill="currentColor" d="M46.15,29.96c-9.44,1.94-8.05,17.21,2.19,17.21,12.17,0,10.95-19.91-2.19-17.21ZM44.2,41.79c-4.23-5.54,3.39-11.69,7.89-7.2,5.31,5.31-3.6,12.8-7.89,7.2Z"/>
    <path fill="currentColor" d="M92.13,32.39c.28-.4.66-.62.23-1.16l-1.86-1.83-5.72,5.49v-5.04s-3.67,0-3.67,0v16.73l.76.62,2.91.07v-5.5s6.18,5.95,6.18,5.95l2.03-2.45-6.35-7c-.16-.93,4.7-4.73,5.49-5.88Z"/>
    <rect fill="currentColor" x="107.22" y="20.69" width="3.21" height="3.21"/>
    <rect fill="currentColor" x="107.22" y="27.56" width="3.21" height="3.21"/>
    <rect fill="currentColor" x="100.35" y="85.75" width="3.21" height="3.21"/>
    <rect fill="currentColor" x="25.66" y="6.94" width="3.67" height="3.21"/>
    <rect fill="currentColor" x="8.7" y="6.94" width="3.21" height="3.21"/>
    <rect fill="currentColor" x="17.41" y="6.94" width="3.21" height="3.21"/>
  </g>
</svg>
