<svg id="Laag_2" data-name="Laag 2" xmlns="http://www.w3.org/2000/svg" viewBox="0 0 115.24 113.65">
  <g id="Laag_1-2" data-name="Laag 1">
    <g>
      <path fill="currentColor" d="M115.07,97.64c-1.99-5.31-4.79.18-6.68,1.55-3.02,2.18-6.31,2.27-9.45.35-1.61-.98-3.41-4-4.56-4.11-1.48-.14-2.94,2.77-4.31,3.77-3.25,2.35-7.11,2.27-10.28-.2-1.2-.93-2.49-3.45-3.74-3.57-1.48-.14-2.94,2.77-4.31,3.77-2.38,1.72-6.3,2.65-8.68.49v-20.85h51.32v-3.67s-3.67-.26-3.67-.26v-3.4c4.84,1.43,4.1-5.7,3.47-8.73-.64-3.12-2.59-4.56-5.31-5.78-.31-4.77,1.93-13.82-4.84-14.77-3.73-.53-15.42-.51-19.21-.05-7.27.88-4.93,9.74-5.24,14.82-2.99,1.24-5.02,3.16-5.48,6.53-.43,3.15-1.06,9.24,3.63,7.98v3.67h-7.33V31.17c2.66-.09,5.73-1.44,7.11-3.67,1.01-.22.58.66,1.16,1.11,5.74,4.44,16.44,3.76,18.79-4.06.44-1.46,1.03-3.12-.5-4.13l-26.1-15.6L70.39,0h-3.4s-.73,4.81-.73,4.81l-26.81,16.27c-.91,1.83.99,5.89,2.34,7.29,3.8,3.96,14.31,4.18,17.15-.87h.67c1.38,2.22,4.45,3.57,7.11,3.66v43.99h-3.67c2.14-21.8-27.79-21.81-25.66,0h-3.67c2.13-21.81-27.78-21.81-25.66,0H.74v3.67h21.99v17.41c-3.06-2.34-3.94,1.58-6.26,3.13-3.15,2.1-6.68,2.04-9.75-.18-1.27-.92-2.4-3.07-3.37-3.54-1.99-.97-5.26,2.83-1.94,4.75.59.34,1.24-.01,1.58.21,1.26.82,2.07,2.02,3.69,2.73,4.95,2.18,10.45,1.03,14.04-2.95,5.39,5.03,13.14,5.68,18.33,0,5.39,5.03,13.14,5.68,18.33,0,5.72,5.28,12.97,5.4,18.66,0,4.9,5.32,13.14,5.42,17.99,0,4.45,3.88,9.81,5.52,15.31,2.51,1.2-.66,1.73-1.66,2.5-2.13.9-.55,4.17-.58,3.21-3.13ZM85.06,75.16h-3.67v-3.67h3.67v3.67ZM99.72,75.16h-11v-3.67h11v3.67ZM107.05,75.16h-3.67v-3.67h3.67v3.67ZM83.22,46.98c0-.08,1.06-1.15,1.15-1.15h19.7c.08,0,1.15,1.06,1.15,1.15v9.85h-21.99v-9.85ZM77.72,67.82c-.03-3.73-.74-6.93,3.87-7.35,8.37-.76,18,.53,26.5.12,3.36,1.04,2.59,4.4,2.62,7.23h-32.99ZM80.01,23.84h13.75c-1.12,5.26-12.64,5.25-13.75,0ZM89.18,20.17h-10.31l-5.27-9.62,15.58,9.62ZM68.33,9.63l2.14,2.9,4.04,7.64h-11.91l5.73-10.54ZM43.36,23.84h13.75c-1.12,5.26-12.64,5.25-13.75,0ZM58.25,20.17h-10.31l15.58-9.62-5.27,9.62ZM61.68,23.84h13.75c-1.12,5.26-12.64,5.25-13.75,0ZM22.74,75.16h-3.67c.16-1.45-.6-4.52.92-5.28,3.53-1.02,2.73,2.92,2.75,5.28ZM30.07,100.82c-1.3.07-3.37.03-3.67-1.6v-27.96c-2.66-9.47-12.91-4.88-10.99,3.91h-3.67c-1.26-7.41,3.46-14.36,11.48-12.63,2.48.53,6.85,4.39,6.85,6.9v31.39ZM33.73,78.82h18.33v3.67h-18.33v-3.67ZM52.06,75.16h-3.67c.16-1.45-.6-4.52.92-5.28,3.53-1.02,2.73,2.92,2.75,5.28ZM33.73,86.15h18.33v3.67h-18.33v-3.67ZM47.69,100.84c-4.72-.34-6.76-5.28-8.3-5.43-1.8-.17-3.49,4.17-5.66,4.48v-6.42h18.33c-.26,4.54,1.7,7.79-4.37,7.36ZM59.39,96.23c-1.48-1.02-2.18-1.03-3.67,0v-25.89c0-.53-1.7-2.72-2.32-3.18-5.35-3.99-10.06,2.64-8.67,7.99h-3.67c-1.73-8.29,5.55-16.12,13.72-11.66,1.57.85,4.61,4.2,4.61,5.93v26.81Z"/>
      <rect fill="currentColor" x=".74" y="109.98" width="113.64" height="3.67"/>
    </g>
  </g>
</svg>
