<svg id="Laag_2" data-name="Laag 2" xmlns="http://www.w3.org/2000/svg" viewBox="0 0 157.02 148.15">
  <g id="Laag_1-2" data-name="Laag 1">
    <g>
      <path fill="currentColor" d="M157.02,72.63v-23.22c-1.73-4.07-3.52-6.79-8.28-7.33-7.3-.83-18.44-1.21-19.35,8.22-.43,4.43-.56,19.56.45,23.44,1.28,4.92,6.59,6.61,11.23,6.22v32.38l-4.21-.08c-2.53-12.12-4.91-20.73-17.87-24.67-5.97-1.81-13.35-.07-17.13-4.97,2.17-3.43,5.7-5.68,7.82-9.19,7.69-12.74,1.3-29.59,3.8-42.64.33-1.71,4.1-4.33,4.75-7.48,2.47-11.88-10.71-16.39-20.31-14.93-6-10.36-18.11-10.7-26.8-3.29-1.05.9-1.57,2.88-2.85,3.27-2.04.62-5.91-.11-8.4.18-7.38.86-13.73,7.53-11.74,15.23.74,2.87,4.29,5.4,4.6,7.02,2.32,12.23-3.41,29.28,2.81,41.19,2.24,4.29,6.05,6.26,8.28,9.49,1.05,1.52-.32,2.49-1.66,3.29-3.05,1.81-8.66,1.39-12.5,2.21-8.14,1.74-14.32,6.06-17.56,13.79l-26.75.1c-2.95.97-4.05,3.5-5.34,5.98v3.05c.92,1.08,1.22,2.55,2.21,3.61,3.88,4.18,9.89,1.41,11.92,2.79.39.26,3.67,6.4,4.91,7.94,1.4,1.74,3.4,3.21,4.89,4.91-9.53-1.45-11.57,14.09-5.34,17.53,2.79,1.54,12.03,1.42,15.48,1.12,2.3-.2,4.68-.58,3.42-3.42-7.54-3.31-22.48,4.53-16.83-10.09l49.57-.55c4.53.86,2.7,9.76.63,9.76h-25.76c-1.13,0-1.78,3.69,1.24,4.26,10.59-1.92,31.78,6.36,31.31-10.38h52.1c2.11.41,1.79,5.53,6.31,7.16,9.31,3.36,18.19-1.93,19.12-11.74.82-8.58-.12-17.86-9.84-20.22l.04-32.62c5.7.53,9.74-2.05,11.66-7.33ZM4.34,108.37c.7-4.15,3.96-3.44,7.32-3.36l.61,6.72c-3.23.06-7.28.72-7.93-3.36ZM105.5,90.34c2.19.28,5.13-.82,6.75.92v13.44l-1.02.82c-.78.17-1.57.14-2.36.14-1.26,0-2.6.2-3.37-.95v-14.36ZM57.32,58.55c6.37-2.18,9.68-6.57,10.72-13.15,1.46-1.05,14.44.71,12.03-3.93-.77-1.48-2.91-1.29-4.34-1.25-6.09.17-12.61,1.99-18.69,2.48v-14.97c0-.54-6.25-2.89-4.62-8.88,2.39-8.79,13.8-4.51,18.58-6.5,1.02-.42,1.89-2.87,2.89-3.89,4.23-4.34,12.81-5.77,17.46-1.47,1.98,1.83,1.96,4.34,4.14,5.65,5.94.29,16.22-1.45,18.3,6.21,1.63,5.99-4.62,8.34-4.62,8.88v14.97l-20.42-2.32c-6.67,6.16,7.66,3.77,9.42,5.03.67,6.61,4.52,10.93,10.72,13.15,2.19,12.94-14.38,26.91-26.4,26.78-10.93-.11-28.09-14.71-25.17-26.78ZM57.04,53.68l.26-6.15,5.87-1.18c1.12,1.1-3.7,7.96-6.13,7.33ZM109.17,53.68c-2.43.63-7.25-6.22-6.13-7.33l5.87,1.18.26,6.15ZM84.95,100.73h-19.93v-7.33c8.48,4.96,18.23,5.87,27.73,3.49,3.17-.8,5.58-2.14,8.46-3.49v12.22h-10.73c-.38,0-2.93-4.89-5.52-4.89ZM78.51,111.73l.61-6.72c10.5-1.53,8.74,8.38-.61,6.72ZM65.64,87.6l2.83-2.69c7.38,4.36,13.84,5.83,22.16,3.16,4.16-1.33,6.8-5.37,9.93-.48-8.25,8.46-26.67,8.46-34.93,0ZM54.24,90.92l6.48-.57v9.47c-.84,1.39-5.82,1.29-6.48.34v-9.24ZM49.68,91.57v9.16h-12.27c1.48-4.98,7.33-8.31,12.27-9.16ZM56.75,129.46c-3.68.45-21.8.46-24.69-.48-4.5-1.46-11.01-8.38-13.15-12.56-.64-1.24-4.84-11.41-2.04-11.41h57.04c3.19,0-2.08,11.02-2.88,12.41-2.5,4.34-9.1,11.42-14.28,12.05ZM76.36,133.11c-.24,0-2.13-3.26-3.65-3.08l-6.46-1.19c4.27-.22,8.97-11.67,10.41-12.54,2.67-1.62,12.68,1.8,13.6-6.31l25.06.2c.66.51.84,1.25,1.06,2,1.78,6.1,2.12,14.52,3.23,20.92h-43.24ZM131.26,118.14v14.97l-7.09-.57c-1.73-5.5-1.96-21.35-5.45-25.13-.85-.92-2.18-1.05-2.18-1.18v-14.66c5.27,1.28,10.23,4.07,12.6,9.14.9,1.91,3.76,12.07,3.79,13.89.02,1.5-1.67,3.12-1.67,3.55ZM148.22,118.66c3.33,3.21,3.49,14.01,1.56,17.95-2.09,4.28-11.94,6.36-13.79,2.48-.78-1.63-.77-18.79,0-20.49,1.55-3.37,9.81-2.26,12.22.06ZM133.99,72.66c-.68-2.17-.67-19.55-.24-22.29.29-1.82,1.63-3.47,3.47-3.88,1.87-.42,10.14-.42,12,0,1.64.36,2.81,1.97,3.21,3.52.71,2.74.74,18.01.26,21.06-.27,1.71-1.95,3.84-3.61,4.34-3.15.96-13.88,1.14-15.09-2.75Z"/>
      <path fill="currentColor" d="M35.22,74.51c2.84,2.21,5.67-2.88,5.85-5.31.23-3.13-2.56-5.64-2.43-7.83.08-1.25,5.27-6.91.3-6.86-1.92.02-4.33,3.87-4.57,5.64-.55,4.02,2.37,6.36,2.39,8.5.01,2.25-4.14,3.83-1.54,5.85Z"/>
      <path fill="currentColor" d="M23.65,87.32c2.29.22,4.51-3.76,4.61-5.84.14-3.06-2.34-5.31-2.49-7.37-.18-2.62,3.15-3.73,2.4-5.99-.4-1.21-2.21-1.2-3.21-.89-1.41.44-3.42,4.25-3.53,5.71-.26,3.49,2.45,6.06,2.45,7.94,0,1.59-4.86,6-.23,6.44Z"/>
      <path fill="currentColor" d="M65.01,21c-.54,1.91,0,9.53,0,12.22,0,.2,1.4,1.61,2.04,1.43l2.26-1.43v-12.22c0-1.34-3.65-2.27-4.29,0Z"/>
      <path fill="currentColor" d="M96.3,33.22l2.26,1.43c.64.18,2.04-1.24,2.04-1.43v-12.22c0-1.34-3.65-2.27-4.29,0-.79,2.79.58,8.98,0,12.22Z"/>
      <path fill="currentColor" d="M84.64,29.25v-13.14c0-.98-2.68-2.15-3.73-.5-.92,1.44-.97,12.29.2,13.49l3.53.15Z"/>
      <path fill="currentColor" d="M91.71,56.68c1.45-.05,8.56,3.6,6.11-1.77-1.02-2.24-5.64-2.65-7.82-2.31-1.87.29-4.18,1.1-4.2,3.22-.03,4.22,3.96.93,5.91.86Z"/>
      <path fill="currentColor" d="M70.07,57.87c.98-.17,1.77-1.17,3.22-1.17,1.78,0,6.7,3.55,5.85-1.47-.43-2.52-5.36-2.89-7.53-2.61-6.18.81-5.76,5.99-1.55,5.24Z"/>
    </g>
  </g>
</svg>
