<?xml version="1.0" encoding="UTF-8"?>
<svg id="Laag_2" data-name="Laag 2" xmlns="http://www.w3.org/2000/svg" viewBox="0 0 110.45 110.86">
  <defs>
    <style>
      .cls-1 {
        fill: #c5a880;
      }
    </style>
  </defs>
  <g id="Laag_1-2" data-name="Laag 1">
    <g>
      <path class="cls-1" d="M52.93,92.04c6.63-15.03-2.06-33.07-18.31-36.2C13.63,51.79-2.33,72.61,6,92.04c-3.42.11-6.2-1-5.99,3.43.3,6.42,4.98,12.43,11.14,14.19,5.42,1.55,26.5,1.35,32.79.77,7.83-.72,14.35-6.48,14.91-14.55.35-4.95-2.06-3.78-5.93-3.85ZM50.76,74.65c1.22,4.36,1.17,12.85-1.56,16.66-.98,1.37-3.49.52-5.02.72,7.52-10.33,2.71-25.31-9.76-28.64-17.15-4.59-29.8,14.36-19.68,28.64-4.94.84-5.74-1.09-6.77-5.42-6.9-29.07,35.39-38.46,42.79-11.96ZM31.05,67.64c1.5-1.89,3.51-.31,5.31.02.21.72-.24.78-.46,1.14-2.91,4.73-12.68,17.2-16.57,21.15-.44.44-.59.88-1.36.7l-1.65-2.71,14.73-20.3ZM15.65,82.84l-.91-.23c-.72-8.09,4.5-14.81,12.42-16.33l-11.5,16.56ZM39.76,70.44c.48.11,3.67,4.03,2.86,5.05l-12.93,16.55h-7.59l17.66-21.6ZM23.25,95.72h12.42c.23,0,1.2,1.16,1.17,1.63.24.59-.84,2.05-1.17,2.05h-12.42c-.23,0-1.2-1.16-1.17-1.63l1.17-2.05ZM34.52,92.04l9.66-12.42c.36,5.88-2.28,14.19-9.66,12.42ZM43.97,106.78c-9.95.75-21.04-.43-31.1-.22-4.88-1.43-8.87-5.64-9.17-10.84h15.18c-1.37,2.53.55,5.86,3.04,6.85,1.97.78,10.9.81,13.3.52,3.43-.41,6.4-4,4.82-7.37h15.18c-.46,5.96-5.31,10.61-11.25,11.06Z"/>
      <path class="cls-1" d="M92.84,4.76c-5.54.08-16.98,3.32-16.92,10.23.04,4.25,5.74,12.55,6.42,17.04.58,3.85.12,9.51.49,13.77.58,6.61,2.75,13.51,3.23,19.77.98,12.58-.79,26.37.01,39.09,2.29,7.67,11.92,7.67,14.2,0,.77-12.58-.93-26.17.01-38.63.49-6.44,2.64-13.48,3.23-20.23.38-4.29-.09-9.92.49-13.77.52-3.42,4.16-9.7,5.37-13.49.41-1.29,1.1-2.62,1.06-4.01-.2-6.74-12.25-9.86-17.6-9.78ZM97.09,103.77c0,.35-1.85,2.55-2.31,2.75-2.3.98-5.51-.98-5.51-3.21v-37.03h7.82v37.49ZM100.1,43.77c-.93,1.34-6.28-.97-6.72,2.06-.27,3.01,4.58,1.85,6.46,2.05l-2.3,14.71-8.31-.19c-2.55-9.46-3-19.44-3.65-29.24h15.18l-.66,10.61ZM101.46,29.02l-4.37.45c.45-1.75,2.9-9.21-.23-9.21-2.24,0-2.76,7.4-2.99,9.21-.73.14-1-.15-1.27-.79-.71-1.66-.54-8.41-3.09-8.42-3.23,0-.4,7.38-.23,9.21l-4.16-.21c-.88-3.4-6-12.17-5.51-15.17.53-3.24,9.7-5.67,12.63-5.79,3.29-.13,13.9,1.99,14.52,5.79.5,3.1-4.61,11.4-5.29,14.93Z"/>
      <path class="cls-1" d="M79.25,77.22c-.58-.98.14-11.85-.16-14.34-.37-3.04-1.77-5.16-4.45-6.59-4.31-2.3-9.64-3.56-10.23,2.84-.48,5.19.9,12.77.03,17.51-.22,1.21-1.61.69-1.87,3.65-.8,9.23.45,19.92.24,29.24.21.28.5.43.8.58,1.32.62,12.26.54,14.4.36,2.57-.21,2.78-.44,2.99-2.99.27-3.28.26-28.18-.53-29.43-.3-.48-1.1-.61-1.22-.82ZM68.1,58c2.07.08,7.36,1.98,7.36,4.37v14.95h-7.36v-19.32ZM77.3,106.76h-11.04v-18.4h11.04v18.4ZM77.3,84.68h-11.04v-3.68h11.04v3.68Z"/>
      <path class="cls-1" d="M44.43,14.28c1.08,1.27,1.67,4.23,3.59,4.05,2.1-.69,2.14-2.92,3.73-4.52,1.31-1.31,6.98-3.6,4.73-5.84-.69-.69-3.25-1.43-4.5-2.63C50.5,3.91,49.38-.17,47.64,0c-1.18.12-2.61,4.09-3.9,5.34-1.15,1.11-5.05,2.54-5.08,3.64-.05,2.02,4.37,3.65,5.77,5.3ZM47.64,6.02l3.9,3.45c-1.18,1.03-2.93,1.71-3.22,3.45l-.95-.29-3.17-3.16,3.45-3.45Z"/>
      <path class="cls-1" d="M69.36,24.54c-.69-.69-3.25-1.43-4.5-2.63-1.49-1.44-2.61-5.52-4.34-5.34-1.18.12-2.61,4.09-3.9,5.34-1.15,1.11-5.05,2.54-5.08,3.64-.05,2.02,4.37,3.65,5.77,5.3,1.08,1.27,1.67,4.23,3.59,4.05,2.1-.69,2.14-2.92,3.73-4.52,1.31-1.31,6.98-3.6,4.73-5.84ZM61.2,29.47l-.95-.29-3.17-3.16,3.45-3.45,3.9,3.45c-1.18,1.03-2.93,1.71-3.22,3.45Z"/>
      <path class="cls-1" d="M37.07,41.88c1.08,1.27,1.67,4.23,3.59,4.05,2.1-.69,2.14-2.92,3.73-4.52,1.31-1.31,6.98-3.6,4.73-5.84-.69-.69-3.25-1.43-4.5-2.63-1.49-1.44-2.61-5.52-4.34-5.34-1.18.12-2.61,4.09-3.9,5.34-1.15,1.11-5.05,2.54-5.08,3.64-.05,2.02,4.37,3.65,5.77,5.3ZM40.28,33.62l3.9,3.45c-1.18,1.03-2.93,1.71-3.22,3.45l-.95-.29-3.17-3.16,3.45-3.45Z"/>
    </g>
  </g>
</svg>