<?xml version="1.0" encoding="UTF-8"?>
<svg id="Laag_2" data-name="Laag 2" xmlns="http://www.w3.org/2000/svg" viewBox="0 0 113.63 106.39">
  <defs>
    <style>
      .cls-1 {
        fill: #c5a880;
      }
    </style>
  </defs>
  <g id="Laag_1-2" data-name="Laag 1">
    <g>
      <path class="cls-1" d="M108.6,86.46c2.3-9.97,3.84-19.82,2.71-30.09-.24-2.16-2.97-13.77-2.6-14.4.06-.11,1.43-.81,1.98-1.46,10.11-11.96-8.44-26.03-17.2-13.05l-.64.18c-23.68-4.67-48.35-4.66-72.03,0l-.64-.18c-10.33-14.06-28.92,3.79-15.22,14.5l.14.59c-4.05,14.46-4.05,29.08,0,43.54-.04.64-1.78,1.63-2.53,2.56-9.42,11.71,9.27,25.4,17.61,12.54l.64-.18c23.68,4.66,48.35,4.66,72.03,0l.64.18c10.53,14.1,28.92-3.89,15.11-14.73ZM100.71,102.72c-3.54-.75-4.72-5.03-6.5-5.18-20.55,4-41.48,4.49-62.27,2.02-3.02-.36-10.13-2.22-12.46-2.02-1.81.16-2.22,2.47-3.31,3.47-5.41,4.94-13.94.09-12.38-7.47.76-3.65,5.07-4.62,5.2-6.5.09-1.22-1.6-5.7-1.95-7.49-2.09-10.71-2.09-19.7,0-30.41.35-1.79,2.04-6.26,1.95-7.49-.12-1.74-3.8-2.74-4.8-5.53-2.94-8.2,6.76-13.7,12.17-8.28.95.95,1.3,3.14,3.11,3.3,20.55-4,41.48-4.49,62.27-2.02,3.01.36,10.14,2.22,12.46,2.02,1.95-.17,2.82-4.42,6.5-5.18,7.55-1.56,12.41,6.97,7.47,12.38-.96,1.06-3.36,1.55-3.48,3.31-.08,1.22,1.6,5.7,1.95,7.49,1.9,9.73,2.17,18.72.38,28.5-.38,2.08-2.42,8.13-2.33,9.4.13,1.94,4.49,2.81,5.19,6.51,1.11,5.87-3.26,10.43-9.18,9.18Z"/>
      <path class="cls-1" d="M60.51,3.85c-.8,1.95-6.86,6.73-4.93,8.59.93.9,13.34,1.85,9.66-2.68l-4.73-.42c.89-1.77,6.84-6.74,4.93-8.59-.93-.9-13.34-1.85-9.66,2.68l4.73.42Z"/>
      <path class="cls-1" d="M82.51,13.02c-.8,1.95-6.86,6.73-4.93,8.59.93.9,13.34,1.85,9.66-2.68l-4.73-.42c.89-1.77,6.84-6.74,4.93-8.59-.93-.9-13.34-1.85-9.66,2.68l4.73.42Z"/>
      <path class="cls-1" d="M86.43,91.6c-13.2,1.94-26.55,2.43-39.91,2.08-1.74-.05-8.34-1.3-9.26-.37-.58.58-.58,1.96,0,2.53.48.46,5.36.94,6.54,1.02,8.4.58,17.73.58,26.11,0,5.59-.39,11.21-1.32,16.76-2.03,1.38-.3,1.49-1.94.77-2.9l-1.01-.33Z"/>
      <path class="cls-1" d="M66.01,35.01c-.8,1.95-6.86,6.73-4.93,8.59.93.9,13.34,1.85,9.66-2.68l-4.73-.42c.89-1.77,6.84-6.74,4.93-8.59-.93-.9-13.34-1.85-9.66,2.68l4.73.42Z"/>
    </g>
  </g>
</svg>