<?xml version="1.0" encoding="UTF-8"?>
<svg id="Laag_2" data-name="Laag 2" xmlns="http://www.w3.org/2000/svg" viewBox="0 0 91.68 91.68">
  <defs>
    <style>
      .cls-1 {
        fill: #c5a880;
      }
    </style>
  </defs>
  <g id="Laag_1-2" data-name="Laag 1">
    <g>
      <path class="cls-1" d="M91.65,46.46c.49-5.24-5.49-7.58-6.3-11.03-.99-4.23,3.3-10.4-1.14-14.04-2.79-2.3-7.66-2.36-9.74-4.87-1.97-2.38-2.11-7.08-4.49-9.48-3.68-3.72-9.68.23-13.73-.71-2.98-.69-5.58-5.9-9.77-6.3-5.24-.49-7.58,5.49-11.03,6.3-4.05.94-10.06-3.01-13.73.71-2.42,2.45-2.9,8.48-4.88,10.24-1.9,1.69-7.34,2-9.79,4.42-3.72,3.67.23,9.68-.71,13.73C5.61,38.55.14,41.11,0,45.62c-.15,4.87,5.57,7.34,6.34,10.62.99,4.25-3.3,10.39,1.14,14.04,2.55,2.1,7.62,2.56,9.36,4.11,1.64,1.45,2.36,6.45,3.88,8.72,4.22,6.32,9.66,1.06,14.72,2.24,3.12.73,5.68,6.2,10.19,6.34,4.87.15,7.34-5.57,10.62-6.34,4.12-.96,10.28,3.13,13.89-.9,2.39-2.68,2.37-7.49,4.78-9.75,2.24-2.11,6.61-2.21,9.29-4.41,4.43-3.64.15-9.8,1.14-14.04.69-2.98,5.9-5.58,6.3-9.77ZM81.79,55.42c-.91,3.86,1.57,7.95.62,11.16-.72,2.43-7.81,3.06-10.21,5.37-2.56,2.46-3.1,9.32-5.28,10.3-2.75,1.24-7.75-1.36-11.48-.48-3.3.78-6.95,6.05-9.39,6.22-2.57.17-6.46-5.43-9.79-6.22-3.86-.91-7.95,1.57-11.16.62-2.43-.72-3.06-7.81-5.37-10.21-2.34-2.44-9.41-3.3-10.3-5.28-1.24-2.77,1.36-7.74.48-11.48-.78-3.3-6.05-6.95-6.22-9.39-.17-2.57,5.43-6.46,6.22-9.79.91-3.87-1.56-7.92-.62-11.16.66-2.25,7.93-3.18,10.21-5.37,2.56-2.46,3.1-9.32,5.28-10.3,2.75-1.24,7.75,1.36,11.48.48,3.35-.79,6.56-5.69,9.01-6.15,2.98-.55,6.6,5.37,10.18,6.14,3.91.84,8.01-1.54,11.16-.62,2.43.72,3.06,7.81,5.37,10.21,2.46,2.56,9.32,3.1,10.3,5.28,1.56,3.47-2.36,8.38.31,13.44,1.12,2.13,5.27,5.22,5.42,7.44.18,2.57-5.43,6.47-6.22,9.79Z"/>
      <path class="cls-1" d="M42.54,14.8c-23.96,2.44-36.24,30.86-21.43,50.03,13.1,16.96,38.99,15.88,50.76-1.91,14.51-21.91-3.4-50.76-29.33-48.12ZM48.36,73.32c-35.87,3.07-40.85-50.86-5.82-54.85,36.92-4.2,41.85,51.77,5.82,54.85Z"/>
      <path class="cls-1" d="M52.24,38.29c-2.07-3.25-1.68-11.34-6.96-10.7-4.04.49-3.96,7.8-5.83,10.7-4.12.9-13.96-2.02-12.29,5.38.57,2.51,6.5,4.89,8.09,7.07.11,3.94-5.22,9.87-.84,12.72,3.91,2.53,8.13-3.83,11.58-5.19,3.35,1.69,8.67,8.86,12.23,4.3,2.51-3.22-1.9-8.15-1.78-11.83,1.78-2.36,7.74-4.52,8.17-7.46,1.03-7.07-8.25-4.01-12.37-4.99ZM60.39,43.21c-1.59,1.37-7.07,4.46-7.57,6.14-.93,3.12,2.19,7.96,2.65,11.13-.35.43-7.45-5.84-9.42-5.95-2.32-.13-9.45,6.4-9.81,5.95.46-3.18,3.58-8.02,2.65-11.13-.5-1.69-5.98-4.78-7.57-6.14-.33-.28-.86.02-.58-1.05,2.85-.41,7.22.56,9.85,0,3.2-.68,4.21-10.33,5.05-10.54.89-.22.68.37.89.92.72,1.88,2.17,9.62,4.6,9.62h9.85c.28,1.07-.26.77-.58,1.05Z"/>
    </g>
  </g>
</svg>