<?xml version="1.0" encoding="UTF-8"?>
<svg id="Laag_2" data-name="Laag 2" xmlns="http://www.w3.org/2000/svg" viewBox="0 0 117.34 95.41">
  <defs>
    <style>
      .cls-1 {
        fill: #c5a880;
      }
    </style>
  </defs>
  <g id="Laag_1-2" data-name="Laag 1">
    <g>
      <path class="cls-1" d="M104.69,17c-1.3-1.07-6.23-5.1-7.43-5.41-.67-.18-1.76-.3-2.21.33-.44.79-.23,1.43.23,2.12.68,1.02,6.28,4.57,7.83,5.92,2.59,2.25,10.86,10.17,10.91,13.28.06,3.22-3.71,6.43-6.57,3.91C82.44,4.43,34.29,4.95,9.6,37.81c-3.43,2.25-6.95-1.6-6.1-5.14.75-3.12,9.12-11.12,11.86-13.38C34.47,3.55,58.67-.97,82.14,7.48c1.73.62,6.94,3.62,8.14,2.88l.75-1.39c0-1.83-7.56-4.54-9.35-5.15C56.5-4.85,29.39,1.62,10.07,19.5c-3.86,3.57-7.77,7.85-10.07,12.61v3.21c1.35,4.6,4.92,7.57,9.88,5.98,2.78-.89,8.37-8.33,11.19-10.8,22.39-19.56,54.31-19.3,76.31.68,2.8,2.55,7.51,9.2,10.73,9.89,5,1.06,9.25-2.83,9.23-7.81-.02-5.06-8.86-13.13-12.65-16.25Z"/>
      <path class="cls-1" d="M92.8,38.97c-9.57-8.99-23.36-14.32-36.53-13.6-12.27.67-28.28,7.9-35.65,17.97-5.8,7.93,2.67,17.81,10.31,11.68,1.23-.98,1.81-2.42,2.97-3.45,13.1-11.59,30.65-14.23,45.33-3.61,4.91,3.55,9.49,12.11,16.3,7.06,6.62-4.91,1.69-11.89-2.73-16.05ZM94.79,51.06c-3.26,6.31-9.05-2.13-11.64-4.28-15.45-12.81-35.79-10.96-50.63,1.58-1.73,1.47-4.34,5.33-6.59,5.26-3-.1-4.38-3.44-3.84-6.06.6-2.92,8.37-9.19,11.02-10.98,7.45-5.02,16.34-7.94,25.38-7.97,11.85-.05,24.24,5.09,32.7,13.33,2.42,2.35,5.45,5.53,3.6,9.12Z"/>
      <path class="cls-1" d="M39.57,58.38c-5.11,5.71-.52,15.54,7.64,13.37,1.37-.36,3.31-2.24,4.72-3.07,1.59-.94,6.11-1.71,4.67-4.06-4.95-3.19-10.19,7.72-14.7,2.78-4.73-5.19,4.33-10.33,8.38-11.82,5.61-2.07,10.76-2.03,16.39-.12,4.34,1.48,13.68,6.67,8.48,12.16-4,4.22-11.27-6.9-13.55-2.53-1.09,2.1,2.44,2.58,3.61,3.29,2.68,1.63,4.3,3.86,7.86,3.6,6.81-.5,8.81-9.4,4.38-14-9.08-9.44-29.12-9.39-37.89.4Z"/>
      <path class="cls-1" d="M56.24,78.03c-8.58,1.75-8.43,16.03.85,17.27,14.06,1.87,13.54-20.2-.85-17.27ZM53.88,89.34c-3.28-5.9,4.55-11.07,8.74-6.68,5.67,5.94-4.78,13.81-8.74,6.68Z"/>
    </g>
  </g>
</svg>